<svg version="1.2" xmlns="http://www.w3.org/2000/svg" viewBox="0 0 3194 875" width="3194" height="875">
	<style>
		.s0 { fill: #182d57 } 
	</style>
	<g id="Layer 1">
		<g id="&lt;Group&gt;">
			<g id="&lt;Group&gt;">
				<path id="&lt;Compound Path&gt;" class="s0" d="m794.05 492.65v-260.11h61.76v108.52l145.94-108.52h88.66l-174.33 122.55 195.75 137.56h-98.37l-157.65-114.43v114.43z"/>
				<path id="&lt;Compound Path&gt;" class="s0" d="m1198.99 492.65v-260.11h61.27v260.11z"/>
				<path id="&lt;Compound Path&gt;" class="s0" d="m1622.87 278.07h-172.34v55.86h164.12q38.6 0 52.18 13.04 13.57 13.04 13.57 48.48v35.68q0 35.43-13.57 48.48-13.58 13.04-52.18 13.04h-162.62q-38.61 0-52.18-13.04-13.57-13.05-13.57-48.48v-7.14l54.04-11.07v30.76h186.04v-59.31h-164.12q-38.36 0-51.8-13.04-13.45-13.04-13.45-48.48v-28.79q0-35.43 13.45-48.48 13.44-13.04 51.8-13.04h149.42q37.11 0 51.18 12.55 14.07 12.55 14.07 44.54v5.42l-54.04 12.55z"/>
				<path id="&lt;Compound Path&gt;" class="s0" d="m1806.92 492.65v-260.11h49.56l124.02 157.25 121.29-157.25h49.06v260.11h-56.78v-160.69q0-4.67 0.62-11.81 0.62-7.14 1.62-16-4.98 10.09-8.72 16.61-3.73 6.52-6.72 10.71l-98.87 129.93h-12.21l-99.12-130.43q-5.48-7.38-9.34-13.9-3.86-6.52-6.35-12.67 0.75 8.12 1.12 14.76 0.38 6.65 0.38 12.8v160.69z"/>
				<path id="&lt;Compound Path&gt;" class="s0" d="m2279.61 492.65v-260.11h269.46v44.3h-208.2v58.07h121.54v44.29h-121.54v64.48h210.7v48.97z"/>
				<path id="&lt;Compound Path&gt;" class="s0" d="m2787.16 279.05v213.6h-61.26v-213.6h-120.79v-46.51h303.34v46.51z"/>
			</g>
			<g id="&lt;Group&gt;">
				<path id="&lt;Compound Path&gt;" fill-rule="evenodd" class="s0" d="m794.05 676.34v-105.42h84.81q11.82 0 17.12 4.84 5.3 4.83 5.3 15.6v23.54q0 10.68-5.3 15.51-5.3 4.84-17.12 4.84h-62.11v41.09zm74.58-87.17h-51.88v27.93h51.88q6.01 0 8.21-1.85 2.21-1.84 2.21-6.53v-11.27q0-4.59-2.21-6.43-2.2-1.85-8.21-1.85z"/>
				<path id="&lt;Compound Path&gt;" class="s0" d="m1132.9 676.34v-105.42h23.08v85.57h74.4v19.85z"/>
				<path id="&lt;Compound Path&gt;" fill-rule="evenodd" class="s0" d="m1448.02 676.34l56.1-105.42h22.24l56.85 105.42h-25.89l-11.92-23.04h-62.86l-11.54 23.04zm44.38-42.09h43.44l-21.39-42.89z"/>
				<path id="&lt;Compound Path&gt;" class="s0" d="m1883.32 589.37h-64.92v22.64h61.82q14.54 0 19.66 5.29 5.11 5.28 5.11 19.64v14.47q0 14.36-5.11 19.64-5.12 5.29-19.66 5.29h-61.26q-14.54 0-19.65-5.29-5.12-5.28-5.12-19.64v-2.9l20.36-4.48v12.46h70.08v-24.03h-61.82q-14.45 0-19.52-5.29-5.06-5.29-5.06-19.65v-11.67q0-14.36 5.06-19.65 5.07-5.28 19.52-5.28h56.29q13.97 0 19.28 5.09 5.3 5.08 5.3 18.05v2.19l-20.36 5.09z"/>
				<path id="&lt;Compound Path&gt;" class="s0" d="m2195.01 589.77v86.57h-23.08v-86.57h-45.5v-18.85h114.27v18.85z"/>
				<path id="&lt;Compound Path&gt;" class="s0" d="m2506 676.34v-105.42h23.08v105.42zm1.6-120.88v-23.94h20.17v23.94z"/>
				<path id="&lt;Compound Path&gt;" class="s0" d="m2791.66 676.34v-105.42h23.27v43.98l54.98-43.98h33.4l-65.68 49.67 73.74 55.75h-37.05l-59.39-46.38v46.38z"/>
			</g>
		</g>
		<g id="&lt;Group&gt;">
			<path id="&lt;Path&gt;" class="s0" d="m211.6 447.8c1.48-3.88 3.22-7.45 4.99-10.61v-161.37h-62.98v367.63h62.98v-144.34c-10.29-15.15-12.04-32.75-4.99-51.31z"/>
			<path id="&lt;Path&gt;" class="s0" d="m476.91 192.52l-241.63 237.71c0 0-32.9 35.27-5.93 66.94 26.97 31.67 38.71 45.44 38.71 45.44 0 0-14.78-29.61 12.92-57.68 27.7-28.08 288.16-292.41 288.16-292.41z"/>
			<path id="&lt;Path&gt;" class="s0" d="m505.62 701.95h-92.15c0 0-96.56-102.13-126.82-133.95-30.25-31.83 13.09-75.35 13.09-75.35l311.65-300.13h90.63l-338.58 331.91c0 0-16.05 10.76 1.19 28.95 17.25 18.2 140.99 148.57 140.99 148.57z"/>
			<path id="&lt;Path&gt;" class="s0" d="m378.8 536.05l154.5 165.9h110.29l-207.93-220.3z"/>
			<g id="&lt;Group&gt;">
				<path id="&lt;Path&gt;" class="s0" d="m302.61 348.08v-72.26h-62.97v134.21z"/>
				<path id="&lt;Path&gt;" class="s0" d="m239.64 525.55v117.9h62.97v-47.92z"/>
			</g>
		</g>
	</g>
</svg>