<svg version="1.2" xmlns="http://www.w3.org/2000/svg" viewBox="0 0 1000 1000" width="1000" height="1000">
	<style>
		.s0 { fill: #182d57 } 
	</style>
	<g id="Layer 1">
		<g id="&lt;Group&gt;">
			<path id="&lt;Path&gt;" class="s0" d="m298.6 498.8c1.48-3.88 3.22-7.45 4.99-10.61v-161.37h-62.98v367.63h62.98v-144.34c-10.29-15.15-12.04-32.75-4.99-51.31z"/>
			<path id="&lt;Path&gt;" class="s0" d="m563.91 243.52l-241.63 237.71c0 0-32.9 35.27-5.93 66.94 26.97 31.67 38.71 45.44 38.71 45.44 0 0-14.78-29.61 12.92-57.68 27.7-28.08 288.16-292.41 288.16-292.41z"/>
			<path id="&lt;Path&gt;" class="s0" d="m592.62 752.95h-92.15c0 0-96.56-102.13-126.82-133.95-30.25-31.83 13.09-75.35 13.09-75.35l311.65-300.13h90.63l-338.58 331.91c0 0-16.05 10.76 1.19 28.95 17.25 18.2 140.99 148.57 140.99 148.57z"/>
			<path id="&lt;Path&gt;" class="s0" d="m465.8 587.05l154.5 165.9h110.29l-207.93-220.3z"/>
			<g id="&lt;Group&gt;">
				<path id="&lt;Path&gt;" class="s0" d="m389.61 399.08v-72.26h-62.97v134.21z"/>
				<path id="&lt;Path&gt;" class="s0" d="m326.64 576.55v117.9h62.97v-47.92z"/>
			</g>
		</g>
	</g>
</svg>